<?xml version="1.0" encoding="UTF-8"?>
<svg viewBox="0 0 744.09448819 1052.3622047" xmlns="http://www.w3.org/2000/svg">
 <path d="m342.99 215.69c-12.65 19.054-35.704 26.521-56.094 34.25-19.221 7.2321-38.412 14.49-58.344 19.5-25.38 7.6649-51.913 13.449-74.938 27.062-4.3396 1.8595 2.877 2.6043 3.75 5.0312 10.078 12.179 9.5475 29.454 7.6562 44.344-2.647 16.747-12.034 31.501-15.125 48.125-10.488 42.675-6.13 88.624 11.469 128.69 5.6224 17.899 5.9975 38.97-3.875 55.469-1.043 2.7476-5.6267 4.9741-6.0312 6.6875 19.868 13.142 43.663 18.508 66.125 25.438 22.533 6.2099 45.021 12.541 66.375 22.188 20.915 8.8653 43.809 17.226 58.688 35.219 1.9719 3.3464 4.088-3.6577 6.4688-4.875 21.084-21.329 51.425-28.627 78.281-39.969 33.915-11.709 70.082-17.835 101.81-34.844 1.9012-1.6554 8.2009-3.578 3.1562-5.5625-13.485-13.162-12.86-34.386-8.9375-51.406 4.6884-15.784 12.288-30.682 15.094-47 8.7726-41.501 5.4421-86.225-12.969-124.69-5.9607-17.124-7.4544-37.565 1.5-53.969 1.3096-3.1039 5.3529-5.5129 6.875-7.3438-21.02-13.949-46.084-19.507-69.906-27.031-21.166-5.7034-41.934-12.493-62.312-20.719-18.994-7.6076-39.891-14.029-54.344-29.219-1.753-1.2301-3.2433-5.6986-4.375-5.375zm-0.5 31.625c0.4075-0.01532 0.83446-0.01562 1.25 0 13.497-0.58993 23.014 16.272 15.375 27.469-6.4407 11.762-25.548 11.277-31.344-0.84375-6.4882-11.107 2.0863-26.15 14.719-26.625zm-36.531 17.094c1.2319-0.11224-0.43021 2.5176 0 4.375-12.142 3.2946-25.137 8.2644-36.469 14.75-18.402 6.5476-34.984 21.246-38.906 40.906-6.4518-0.06955-13.137 0.21458-19.406 2.125-13.066 3.0806-20.128 15.551-26.719 26.125 3.0249-14.165 3.5881-29.217-0.71875-43.188-3.097-4.3484 1.4657-5.265 4.9688-6.5625 39.566-11.52 78.763-23.961 117.25-38.531zm76.312 0.21875c39.788 17.425 82.989 25.204 123.22 41.438-4.5617 14.336-5.5872 29.866-2.5625 44.625-7.1969-17.83-26.733-28.457-45.594-26.875-2.1485-12.32-9.8969-23.184-19.938-30.406-17.221-8.7631-35.887-20.185-55.083-24.348l-0.04219-4.4337zm-70.062 22.844c11.289 0.95743 18.439 11.787 25.094 19.781 2.3191 2.5913 4.5478 7.1842 6.5625 8.8438 7.5993-10.724 15.477-22.912 28.031-28.156 10.828-1.4732 20.438 5.9922 30.188 9.5938 10.38 5.029 21.749 9.7057 30.031 17.75 6.0957 8.7681 4.7766 20.132 7.0625 30.125 12.358-0.52339 26.582-4.5815 37.719 2.5938 13.751 17.855 22.212 39.612 26.812 61.594 8.5606 42.726-0.57925 89.036-26 124.53-9.5641 7.0846-22.641 4.3989-33.719 3.9062-5.8818-2.4472-5.0033 3.3982-5.4375 7.5938-1.076 10.309-2.9818 23.106-13.812 27.781-13.792 8.3924-28.561 15.331-43.719 20.812-10.54 4.6566-19.284-5.4161-25.531-12.406-4.2574-4.9626-8.1456-10.3-11.844-15.719-8.1118 10.585-15.445 23.572-28.25 28.906-10.458 1.4192-19.813-5.6683-29.188-9.25-10.801-5.0428-22.043-10.237-31.094-17.969-6.799-8.4958-7.5468-20.023-7.4375-30.469-12.214-0.16888-26.094 4.6776-37.188-2.2812-25.038-34.11-34.76-78.731-27.719-120.41 4.0546-23.669 12.887-46.976 27.344-66.219 10.213-6.9614 23.685-3.1949 35.188-3.0312 5.1916 1.682 2.2017-6.0295 3.5625-8.875 0.95362-10.455 3.5962-23.021 14.562-27.5 13.563-8.1547 28.061-14.923 42.906-20.312 1.9361-0.48293 3.8731-1.0978 5.875-1.2188zm191.5 243.5c-3.2003 15.192-3.5234 31.727 2.625 46.312-38.839 14.793-80.38 23.512-118.84 39.969-4.469 3.02-6.168 2.3022-5.6875-2.8438 13.376-2.0849 25.599-8.314 37.375-14.656 18.288-6.2383 34.682-20.933 38.625-40.406 6.8964-0.02286 14.284-0.5007 20.969-2.9062 12.241-3.4209 18.516-15.218 24.781-25.219l0.15625-0.25zm-319.25 0.25c0.06307-0.04285 0.4886 0.89768 0.6875 1.1875 6.8815 17.568 26.095 28.535 44.781 27.062 2.5221 12.18 10.486 22.731 20.375 29.969 16.88 8.5289 33.029 19.566 51.688 24.125 4.841-0.23914 5.0606 2.2193 4.1562 6.2812-39.579-19.262-84.089-26.415-125.06-42.5 4.3503-14.305 6.5118-30.803 3.375-46.062-0.00766-0.05213-0.00901-0.05638 0-0.0625zm158.03 70.719c0.4075-0.01532 0.83446-0.01562 1.25 0 13.497-0.58996 23.014 16.272 15.375 27.469-6.4213 11.812-25.575 11.308-31.344-0.84375-6.4882-11.107 2.0863-26.15 14.719-26.625z" fill="#000" fill-rule="evenodd" stroke="#000" stroke-linecap="round" stroke-linejoin="round"/>
</svg>
